<?xml version="1.0" encoding="utf-8"?>
<!-- Generator: Adobe Illustrator 16.0.4, SVG Export Plug-In . SVG Version: 6.00 Build 0)  -->
<!DOCTYPE svg PUBLIC "-//W3C//DTD SVG 1.1//EN" "http://www.w3.org/Graphics/SVG/1.1/DTD/svg11.dtd">
<svg version="1.1" id="Layer_1" xmlns="http://www.w3.org/2000/svg" xmlns:xlink="http://www.w3.org/1999/xlink" x="0px" y="0px"
	 width="500.0px" height="500.0px" viewBox="0 0 500 500" enable-background="new 0 0 500 500"
	 xml:space="preserve">

<g transform="translate(250 250)">
	<!-- torso -->
	<polygon fill="#8B575C" points="-50,-50 50,-50 -50,50 "/>
	<polygon fill="#8B575C" points="-50,50 50,-50 50,50"/>

	<!-- head -->
	<g transform="translate(0 -100)">
		<g transform="rotate(45)">
			<g transform="scale(.5 .5)">
				<polygon fill="#C98986" points="-50,-50 50,-50 -50,50 "/>
				<polygon fill="#C98986" points="-50,50 50,-50 50,50"/>
			</g>
		</g>
	</g>

    <!-- head -->
	<g transform="translate(-10 -110)">
			<g transform="scale(.1 .1)">
				<polygon fill="#FFFFFF" points="-50,-50 50,-50 -50,50 "/>
				<polygon fill="#FFFFFF" points="-50,50 50,-50 50,50"/>
			</g>
	</g>
    <g transform="translate(10 -110)">
			<g transform="scale(.1 .1)">
				<polygon fill="#FFFFFF" points="-50,-50 50,-50 -50,50 "/>
				<polygon fill="#FFFFFF" points="-50,50 50,-50 50,50"/>
			</g>
	</g>
    

	<!-- left leg -->
	<g transform="translate(-40 90)">
		<g transform="scale(.2 .6)">
			<polygon fill="#F6BDD1" points="-50,-50 50,-50 -50,50 "/>
			<polygon fill="#F6BDD1" points="-50,50 50,-50 50,50"/>
		</g>
		<g transform="translate(0 70)">
			<g transform="scale(.2 .6)">
				<polygon fill="#D89A9E" points="-50,-50 50,-50 -50,50 "/>
				<polygon fill="#D89A9E" points="-50,50 50,-50 50,50"/>
			</g>
		</g>
	</g>

	<!-- right leg -->
	<g transform="translate(40 90)">
		<g transform="scale(.2 .6)">
			<polygon fill="#F6BDD1" points="-50,-50 50,-50 -50,50 "/>
			<polygon fill="#F6BDD1" points="-50,50 50,-50 50,50"/>
		</g>
		<g transform="translate(0 70)">
			<g transform="scale(.2 .6)">
				<polygon fill="#D89A9E" points="-50,-50 50,-50 -50,50 "/>
				<polygon fill="#D89A9E" points="-50,50 50,-50 50,50"/>
			</g>
		</g>
	</g>

    <!-- left arm -->
	<g transform="translate(-90 -40)">
        <g transform="rotate(45)">
		    <g transform="scale(.6 .2)">
                <polygon fill="#F6E4F6" points="-50,-50 50,-50 -50,50 "/>
                <polygon fill="#F6E4F6" points="-50,50 50,-50 50,50"/>
		    </g>
        </g>
		<g transform="translate(-25 -60)">
            <g transform="rotate(110)">
                <g transform="scale(.6 .2)">
                    <polygon fill="#D89A9E" points="-50,-50 50,-50 -50,50 "/>
                    <polygon fill="#D89A9E" points="-50,50 50,-50 50,50"/>
                </g>
		    </g>
        </g>
	</g>

    <!-- right arm -->
	<g transform="translate(90 -40)">
        <g transform="rotate(-45)">
		    <g transform="scale(.6 .2)">
                <polygon fill="#F6E4F6" points="-50,-50 50,-50 -50,50 "/>
                <polygon fill="#F6E4F6" points="-50,50 50,-50 50,50"/>
		    </g>
        </g>
		<g transform="translate(25 -60)">
            <g transform="rotate(-110)">
                <g transform="scale(.6 .2)">
                    <polygon fill="#D89A9E" points="-50,-50 50,-50 -50,50 "/>
                    <polygon fill="#D89A9E" points="-50,50 50,-50 50,50"/>
                </g>
            </g>
		</g>
	</g>

</g>


</svg>
